HIERARCHY
ROOT Hips
{
 OFFSET 0.000000 0.000000 0.000000
 CHANNELS 6 Xposition Yposition Zposition Yrotation Xrotation Zrotation
 JOINT Chest
 {
  OFFSET 0.000000 10.354800 0.006500
  CHANNELS 3 Yrotation Xrotation Zrotation
  JOINT Chest2
  {
   OFFSET 0.000000 10.435800 -0.013200
   CHANNELS 3 Yrotation Xrotation Zrotation
   JOINT Chest3
   {
    OFFSET 0.000000 10.393700 0.000000
    CHANNELS 3 Yrotation Xrotation Zrotation
    JOINT Chest4
    {
     OFFSET 0.000000 10.383100 0.000000
     CHANNELS 3 Yrotation Xrotation Zrotation
     JOINT Neck
     {
      OFFSET 0.000000 15.694000 0.000000
      CHANNELS 3 Yrotation Xrotation Zrotation
      JOINT Head
      {
       OFFSET 0.000000 9.711000 -0.028000
       CHANNELS 3 Yrotation Xrotation Zrotation
       End Site
       {
        OFFSET 0.000000 18.578700 -0.014800
       }
      }
     }
     JOINT RightCollar
     {
      OFFSET -3.157200 10.367500 0.000000
      CHANNELS 3 Yrotation Xrotation Zrotation
      JOINT RightShoulder
      {
       OFFSET -14.482500 0.000000 0.000000
       CHANNELS 3 Yrotation Xrotation Zrotation
       JOINT RightElbow
       {
        OFFSET 0.000000 -31.707800 0.000000
        CHANNELS 3 Yrotation Xrotation Zrotation
        JOINT RightWrist
        {
         OFFSET 0.000000 -25.659300 0.000000
         CHANNELS 3 Yrotation Xrotation Zrotation
         End Site
         {
          OFFSET 0.000000 -18.994300 0.000000
         }
        }
       }
      }
     }
     JOINT LeftCollar
     {
      OFFSET 3.157200 10.367500 0.000000
      CHANNELS 3 Yrotation Xrotation Zrotation
      JOINT LeftShoulder
      {
       OFFSET 14.482500 0.000000 0.000000
       CHANNELS 3 Yrotation Xrotation Zrotation
       JOINT LeftElbow
       {
        OFFSET 0.000000 -31.707800 0.000000
        CHANNELS 3 Yrotation Xrotation Zrotation
        JOINT LeftWrist
        {
         OFFSET 0.000000 -25.659300 0.000000
         CHANNELS 3 Yrotation Xrotation Zrotation
         End Site
         {
          OFFSET 0.000000 -18.994300 0.000000
         }
        }
       }
      }
     }
    }
   }
  }
 }
 JOINT RightHip
 {
  OFFSET -8.365600 -0.032100 -0.003200
  CHANNELS 3 Yrotation Xrotation Zrotation
  JOINT RightKnee
  {
   OFFSET 0.000000 -43.980000 0.003100
   CHANNELS 3 Yrotation Xrotation Zrotation
   JOINT RightAnkle
   {
    OFFSET 0.000000 -42.882800 0.005200
    CHANNELS 3 Yrotation Xrotation Zrotation
    JOINT RightToe
    {
     OFFSET 0.000000 -4.915500 10.826300
     CHANNELS 3 Yrotation Xrotation Zrotation
     End Site
     {
      OFFSET 0.000000 -1.517500 6.175900
     }
    }
   }
  }
 }
 JOINT LeftHip
 {
  OFFSET 8.365600 -0.032100 -0.003200
  CHANNELS 3 Yrotation Xrotation Zrotation
  JOINT LeftKnee
  {
   OFFSET 0.000000 -43.980000 0.003100
   CHANNELS 3 Yrotation Xrotation Zrotation
   JOINT LeftAnkle
   {
    OFFSET 0.000000 -42.882800 0.005200
    CHANNELS 3 Yrotation Xrotation Zrotation
    JOINT LeftToe
    {
     OFFSET 0.000000 -4.915500 10.826300
     CHANNELS 3 Yrotation Xrotation Zrotation
     End Site
     {
      OFFSET 0.000000 -1.517500 6.175900
     }
    }
   }
  }
 }
}
MOTION
Frames: 15
Frame Time: 0.008333
5.481554 126.530863 45.657776 170.593931 -20.471464 -3.802851 -0.337363 13.182149 3.803960 -0.066802 1.095545 0.319028 -0.099477 1.861377 0.539511 -0.366275 11.892504 3.434477 -1.493569 20.008974 -4.037467 -0.678706 -4.363817 -3.937362 2.285287 5.562545 -5.935993 2.178931 -4.242487 -2.909982 -75.155392 -45.686780 115.647267 -26.378577 -25.014132 -40.969093 -0.965019 7.400253 0.931432 6.396263 -2.973247 -4.014513 70.702713 -54.971957 -109.286974 25.910822 0.603679 33.943567 7.868497 -61.932159 -1.835276 -83.909993 79.199742 -77.100998 4.651503 7.976978 -16.945693 -0.003500 -0.004499 -0.001589 -16.319654 -61.952296 4.362751 123.427779 85.896172 116.250707 -4.833339 -26.503828 1.175873 -0.002184 0.003931 -0.000992
5.480449 126.530828 45.658346 170.624484 -20.475522 -3.810926 -0.350027 13.192861 3.805059 -0.077996 1.091837 0.319590 -0.091584 1.866094 0.539321 -0.374763 11.890112 3.435354 -1.491727 20.076063 -4.004662 -0.698153 -4.372416 -3.928440 2.306714 5.568655 -5.947873 2.150914 -4.237079 -2.896441 -75.115988 -45.657107 115.637935 -26.396204 -25.033177 -41.003276 -0.970549 7.408994 0.946358 6.403830 -2.987618 -4.010927 70.733844 -54.985978 -109.336554 25.919806 0.612356 33.948684 7.885275 -61.929702 -1.856539 -83.944432 79.186474 -77.143720 4.643225 7.984393 -16.921574 -0.005794 -0.005557 -0.002630 -16.334260 -61.952443 4.359442 123.494687 85.900623 116.320308 -4.846537 -26.506616 1.175415 -0.001102 0.001510 -0.000500
5.480472 126.530633 45.659727 170.639952 -20.477006 -3.818733 -0.348525 13.201912 3.810679 -0.077211 1.089715 0.318801 -0.102721 1.862631 0.540570 -0.356121 11.904159 3.437313 -1.510062 20.069162 -3.996664 -0.706820 -4.332714 -3.898394 2.315884 5.557904 -5.959984 2.118429 -4.225626 -2.878559 -75.076473 -45.626498 115.624904 -26.415549 -25.048332 -41.029848 -0.991413 7.393358 0.953672 6.423255 -2.991968 -3.977681 70.793979 -54.998418 -109.432227 25.966335 0.623545 33.975413 7.929498 -61.934031 -1.873101 -84.015543 79.166760 -77.224061 4.650544 7.985155 -16.891484 -0.003904 -0.005813 -0.001773 -16.354388 -61.953731 4.368621 123.463586 85.895546 116.291268 -4.830107 -26.505521 1.161489 0.001657 0.000971 0.000752
5.479714 126.530150 45.661630 170.655764 -20.474431 -3.820973 -0.350289 13.207776 3.809930 -0.075301 1.091444 0.321037 -0.102828 1.864917 0.541397 -0.356217 11.910789 3.440102 -1.519086 20.084292 -3.981246 -0.713897 -4.338957 -3.883135 2.330785 5.538771 -5.978319 2.097066 -4.195672 -2.855027 -75.057411 -45.607199 115.622178 -26.438721 -25.058126 -41.042216 -1.005498 7.373708 0.955744 6.468049 -2.992020 -3.919769 70.794840 -54.949631 -109.483329 25.947230 0.627185 33.972016 7.952476 -61.937769 -1.892284 -84.043807 79.161482 -77.256264 4.650671 7.983080 -16.882123 -0.002369 -0.004939 -0.001076 -16.371278 -61.959258 4.370926 123.351152 85.897250 116.183545 -4.832798 -26.490987 1.144634 0.002261 0.002333 0.001026
5.478978 126.530013 45.662644 170.668907 -20.477229 -3.819767 -0.350415 13.218271 3.807542 -0.062615 1.102517 0.319820 -0.114500 1.857896 0.540691 -0.352331 11.916212 3.440605 -1.523734 20.089934 -3.963140 -0.720611 -4.354327 -3.865722 2.372526 5.510412 -6.006215 2.067467 -4.140821 -2.805304 -75.095561 -45.615861 115.651192 -26.465118 -25.058413 -41.047135 -1.015362 7.354176 0.970943 6.504844 -2.986091 -3.887512 70.797235 -54.922599 -109.529009 25.926373 0.622459 33.969415 7.966087 -61.934999 -1.909976 -84.061760 79.161462 -77.280118 4.667899 7.981782 -16.885906 -0.001891 -0.003728 -0.000858 -16.381432 -61.958313 4.368367 123.338425 85.900360 116.168512 -4.832535 -26.487141 1.140799 0.001037 0.003248 0.000471
5.478548 126.529970 45.663678 170.682580 -20.480609 -3.818712 -0.350407 13.229170 3.808103 -0.062797 1.104061 0.319964 -0.102898 1.871967 0.541704 -0.355376 11.932564 3.435990 -1.528053 20.068719 -3.937843 -0.728177 -4.379693 -3.857142 2.376398 5.465734 -6.015721 2.048982 -4.130976 -2.787046 -75.077589 -45.607875 115.636164 -26.463297 -25.065240 -41.042818 -1.018907 7.317649 1.003309 6.528638 -2.979911 -3.878630 70.815143 -54.924572 -109.581325 25.927444 0.617492 33.968572 7.978394 -61.931566 -1.928790 -84.081566 79.158296 -77.297840 4.670020 7.979181 -16.889523 -0.000075 -0.003334 -0.000034 -16.397179 -61.956630 4.368131 123.313973 85.900487 116.137424 -4.817496 -26.484098 1.134933 0.000405 0.004491 0.000184
5.478126 126.529947 45.664926 170.693990 -20.483760 -3.815598 -0.352067 13.237668 3.807466 -0.060376 1.106242 0.320814 -0.102897 1.874546 0.542216 -0.354769 11.940239 3.436493 -1.539331 20.051891 -3.937485 -0.722527 -4.395704 -3.841138 2.385583 5.446716 -6.036221 2.048653 -4.113840 -2.759530 -75.063716 -45.608054 115.600635 -26.481448 -25.054920 -41.015298 -1.022483 7.307880 1.014483 6.540091 -2.982163 -3.874814 70.837069 -54.939098 -109.611462 25.921259 0.614280 33.965708 8.028626 -61.935241 -1.965429 -84.153893 79.139499 -77.368021 4.677966 7.980087 -16.874984 0.001973 -0.005525 0.000896 -16.412257 -61.954725 4.368948 123.322663 85.907169 116.138631 -4.808219 -26.490099 1.132606 -0.001032 0.004132 -0.000468
5.477468 126.530099 45.665917 170.700141 -20.489758 -3.807872 -0.356387 13.245349 3.799836 -0.053365 1.109626 0.323496 -0.102632 1.876927 0.542614 -0.352300 11.947499 3.436710 -1.539597 20.040502 -3.925229 -0.729358 -4.407579 -3.842526 2.394410 5.434299 -6.059800 2.041664 -4.108023 -2.737836 -75.049037 -45.606938 115.559053 -26.503447 -25.022893 -40.991554 -1.029613 7.298207 1.019443 6.588023 -2.969704 -3.841346 70.873444 -54.965723 -109.655550 25.948731 0.628127 33.939600 8.050908 -61.931468 -1.986818 -84.156147 79.141394 -77.389637 4.700559 7.980136 -16.851831 -0.003575 -0.003388 -0.001623 -16.415418 -61.951656 4.361598 123.338797 85.908384 116.148642 -4.806892 -26.498644 1.128603 -0.002204 0.003007 -0.001001
5.477578 126.530416 45.667074 170.704006 -20.497335 -3.802729 -0.350729 13.254977 3.797949 -0.055310 1.109621 0.324400 -0.105992 1.877520 0.541331 -0.345803 11.955758 3.435949 -1.535530 20.027704 -3.915075 -0.736641 -4.415167 -3.840102 2.399964 5.427629 -6.076634 2.033788 -4.106153 -2.721341 -75.038303 -45.606254 115.518441 -26.501392 -25.006421 -40.972866 -1.032023 7.291812 1.026484 6.636670 -2.955103 -3.813310 70.880475 -54.960284 -109.705231 25.937497 0.625943 33.944466 8.067317 -61.926977 -2.001463 -84.165341 79.138432 -77.399578 4.676202 7.982601 -16.847766 -0.006609 -0.001913 -0.003001 -16.420463 -61.946757 4.356764 123.367524 85.908838 116.178508 -4.798876 -26.510473 1.115824 -0.000967 0.001792 -0.000439
5.478949 126.530964 45.668375 170.708293 -20.507059 -3.804062 -0.340667 13.263579 3.807345 -0.062353 1.109509 0.320391 -0.108261 1.881254 0.541213 -0.341397 11.959467 3.433697 -1.530424 20.018968 -3.906449 -0.725556 -4.448227 -3.825333 2.400496 5.423062 -6.083824 2.040131 -4.095524 -2.742123 -75.032226 -45.592145 115.492842 -26.507699 -25.016195 -40.946719 -1.025287 7.313615 1.042653 6.671121 -2.963774 -3.807279 70.873657 -54.950200 -109.746584 25.912804 0.607972 33.963528 8.063531 -61.922306 -1.983961 -84.193615 79.122325 -77.433038 4.675426 7.982429 -16.852052 -0.000477 -0.002807 -0.000216 -16.435823 -61.937684 4.366457 123.382716 85.908479 116.190836 -4.794986 -26.523554 1.106749 -0.001431 0.000965 -0.000650
5.480250 126.531330 45.670453 170.710629 -20.513843 -3.804534 -0.338709 13.267774 3.809644 -0.060286 1.109128 0.321249 -0.107644 1.883599 0.539032 -0.339815 11.963405 3.436018 -1.517493 20.005064 -3.896873 -0.741159 -4.441893 -3.826233 2.401553 5.421705 -6.093349 2.035081 -4.093965 -2.752684 -74.977059 -45.593223 115.418543 -26.521107 -25.036251 -40.899353 -1.026195 7.322284 1.048283 6.715019 -2.954754 -3.795392 70.888690 -54.961103 -109.786259 25.911694 0.599126 33.969889 8.058829 -61.920510 -1.976017 -84.226823 79.116605 -77.470482 4.695843 7.975994 -16.858063 0.002008 -0.002994 0.000912 -16.447238 -61.931658 4.374822 123.378388 85.907164 116.187247 -4.795637 -26.533608 1.096348 -0.001631 0.000752 -0.000741
5.481049 126.531698 45.672581 170.713015 -20.521089 -3.802011 -0.340135 13.274166 3.807167 -0.055735 1.106033 0.323061 -0.108532 1.886932 0.540189 -0.337768 11.966100 3.435457 -1.518162 19.999380 -3.893799 -0.736469 -4.453206 -3.821668 2.411563 5.416902 -6.111154 2.018564 -4.088932 -2.754355 -74.964406 -45.580825 115.403279 -26.514347 -25.038820 -40.924464 -1.026424 7.326910 1.054302 6.760853 -2.938525 -3.788174 70.920729 -54.989564 -109.818390 25.930305 0.600893 33.960981 8.062742 -61.918974 -1.978272 -84.263072 79.112721 -77.507380 4.686493 7.970765 -16.856812 0.001561 -0.002192 0.000709 -16.444134 -61.926174 4.369125 123.327445 85.904225 116.140379 -4.798267 -26.535160 1.088359 -0.002274 0.001274 -0.001032
5.481660 126.532776 45.672870 170.720451 -20.539532 -3.798405 -0.339640 13.287094 3.805280 -0.061138 1.109207 0.321177 -0.100618 1.882859 0.543499 -0.343973 11.973329 3.432044 -1.517100 19.995705 -3.888218 -0.735540 -4.461735 -3.817696 2.423926 5.411931 -6.125429 2.000496 -4.083661 -2.752620 -74.962245 -45.568626 115.402178 -26.510234 -25.049887 -41.004713 -1.027857 7.327138 1.058772 6.784477 -2.927770 -3.785833 70.955588 -55.003832 -109.828303 25.934436 0.600006 33.961294 8.066459 -61.904414 -1.984975 -84.289083 79.105006 -77.536031 4.688544 7.968296 -16.851062 0.000164 -0.002561 0.000075 -16.449187 -61.908121 4.365055 123.223837 85.901641 116.029023 -4.789964 -26.545375 1.082931 -0.002308 -0.001011 -0.001048
5.482821 126.533401 45.674794 170.718615 -20.550346 -3.795985 -0.335869 13.286351 3.806319 -0.062603 1.118304 0.319099 -0.100218 1.882285 0.543914 -0.341422 11.975941 3.431092 -1.515426 19.994341 -3.880832 -0.733216 -4.467493 -3.813365 2.438091 5.408446 -6.143095 1.980976 -4.079110 -2.737037 -74.931365 -45.569315 115.376578 -26.517692 -25.073347 -41.015448 -1.029962 7.326842 1.063867 6.809882 -2.914665 -3.783861 70.990565 -55.011193 -109.836330 25.943670 0.620623 33.944145 8.070592 -61.896325 -1.984934 -84.282466 79.101030 -77.532150 4.696603 7.970816 -16.846983 -0.001113 -0.000197 -0.000505 -16.457062 -61.894799 4.376440 123.077349 85.893776 115.873766 -4.784625 -26.552052 1.082689 -0.001780 -0.001668 -0.000808
5.483664 126.533897 45.677136 170.716373 -20.558860 -3.792192 -0.338250 13.287614 3.802822 -0.061433 1.113869 0.320594 -0.097341 1.893028 0.542007 -0.339336 11.977053 3.430115 -1.514868 19.995676 -3.874785 -0.735786 -4.471425 -3.806139 2.468666 5.392204 -6.169301 1.949056 -4.061578 -2.723102 -74.870051 -45.551561 115.336063 -26.512037 -25.114704 -41.047502 -1.027836 7.322963 1.076269 6.893948 -2.862571 -3.781818 71.001629 -55.015133 -109.900827 25.948495 0.635543 33.933206 8.076727 -61.894919 -1.985206 -84.296524 79.102941 -77.548476 4.683390 7.975490 -16.843118 -0.002464 0.001403 -0.001119 -16.445748 -61.885665 4.370228 122.936184 85.884182 115.735262 -4.796893 -26.554576 1.081261 -0.003866 -0.002983 -0.001755
